<mxfile host="Electron" agent="Mozilla/5.0 (Macintosh; Intel Mac OS X 10_15_7) AppleWebKit/537.36 (KHTML, like Gecko) draw.io/28.0.4 Chrome/138.0.7204.97 Electron/37.2.1 Safari/537.36" version="28.0.4">
  <diagram id="eyXDtjwZH_SIRx9eH2kG" name="sơ đồ use case">
    <mxGraphModel dx="2050" dy="2258" grid="1" gridSize="10" guides="1" tooltips="1" connect="1" arrows="1" fold="1" page="1" pageScale="1" pageWidth="850" pageHeight="1100" math="0" shadow="0">
      <root>
        <mxCell id="0" />
        <mxCell id="1" parent="0" />
        <mxCell id="hnkaHucLAWo4Te5h9rhA-1" value="bỏ đăng xuất (không lưu trong database),&lt;div&gt;Sửa mũi tên bằng dấu gạch không mũi tên,&lt;/div&gt;&lt;div&gt;extend hay include có dấu ngoặc,&lt;/div&gt;&lt;div&gt;Liên kết các chức năng, nối lại các usecase,&lt;/div&gt;&lt;div&gt;&lt;span style=&quot;background-color: transparent; color: light-dark(rgb(0, 0, 0), rgb(255, 255, 255));&quot;&gt;Extend là nét đứt,&lt;/span&gt;&lt;/div&gt;&lt;div&gt;&lt;span style=&quot;background-color: transparent; color: light-dark(rgb(0, 0, 0), rgb(255, 255, 255));&quot;&gt;&amp;nbsp;&lt;/span&gt;&lt;/div&gt;&lt;div&gt;&lt;br&gt;&lt;/div&gt;" style="text;html=1;align=center;verticalAlign=middle;resizable=0;points=[];autosize=1;strokeColor=none;fillColor=none;" vertex="1" parent="1">
          <mxGeometry x="620" y="-42" width="260" height="110" as="geometry" />
        </mxCell>
        <mxCell id="hnkaHucLAWo4Te5h9rhA-2" value="Người thuê phòng" style="shape=umlActor;verticalLabelPosition=bottom;verticalAlign=top;html=1;outlineConnect=0;" vertex="1" parent="1">
          <mxGeometry x="30" y="750" width="40" height="70" as="geometry" />
        </mxCell>
        <mxCell id="hnkaHucLAWo4Te5h9rhA-4" value="Đăng nhập" style="ellipse;whiteSpace=wrap;html=1;" vertex="1" parent="1">
          <mxGeometry x="500" y="730" width="150" height="80" as="geometry" />
        </mxCell>
        <mxCell id="hnkaHucLAWo4Te5h9rhA-5" value="thanh toán tiền phòng" style="ellipse;whiteSpace=wrap;html=1;" vertex="1" parent="1">
          <mxGeometry x="240" y="610" width="120" height="70" as="geometry" />
        </mxCell>
        <mxCell id="hnkaHucLAWo4Te5h9rhA-6" value="" style="endArrow=none;html=1;rounded=0;exitX=1;exitY=0.3333333333333333;exitDx=0;exitDy=0;exitPerimeter=0;" edge="1" parent="1" source="hnkaHucLAWo4Te5h9rhA-2">
          <mxGeometry width="50" height="50" relative="1" as="geometry">
            <mxPoint x="190" y="700" as="sourcePoint" />
            <mxPoint x="240" y="650" as="targetPoint" />
          </mxGeometry>
        </mxCell>
        <mxCell id="hnkaHucLAWo4Te5h9rhA-8" value="Xem số điện, số nước đã dùng" style="ellipse;whiteSpace=wrap;html=1;" vertex="1" parent="1">
          <mxGeometry x="230" y="700" width="140" height="70" as="geometry" />
        </mxCell>
        <mxCell id="hnkaHucLAWo4Te5h9rhA-9" value="" style="endArrow=none;html=1;rounded=0;entryX=0;entryY=0.5;entryDx=0;entryDy=0;exitX=1;exitY=0.3333333333333333;exitDx=0;exitDy=0;exitPerimeter=0;" edge="1" parent="1" source="hnkaHucLAWo4Te5h9rhA-2" target="hnkaHucLAWo4Te5h9rhA-8">
          <mxGeometry width="50" height="50" relative="1" as="geometry">
            <mxPoint x="80" y="700" as="sourcePoint" />
            <mxPoint x="380" y="740" as="targetPoint" />
          </mxGeometry>
        </mxCell>
        <mxCell id="hnkaHucLAWo4Te5h9rhA-11" value="Xem lịch sử giao dịch" style="ellipse;whiteSpace=wrap;html=1;" vertex="1" parent="1">
          <mxGeometry x="230" y="800" width="120" height="60" as="geometry" />
        </mxCell>
        <mxCell id="hnkaHucLAWo4Te5h9rhA-12" value="" style="endArrow=none;html=1;rounded=0;entryX=0;entryY=0.5;entryDx=0;entryDy=0;exitX=1;exitY=0.3333333333333333;exitDx=0;exitDy=0;exitPerimeter=0;" edge="1" parent="1" source="hnkaHucLAWo4Te5h9rhA-2" target="hnkaHucLAWo4Te5h9rhA-11">
          <mxGeometry width="50" height="50" relative="1" as="geometry">
            <mxPoint x="70" y="768" as="sourcePoint" />
            <mxPoint x="230" y="830" as="targetPoint" />
          </mxGeometry>
        </mxCell>
        <mxCell id="hnkaHucLAWo4Te5h9rhA-14" value="Nhận thông báo" style="ellipse;whiteSpace=wrap;html=1;" vertex="1" parent="1">
          <mxGeometry x="230" y="900" width="120" height="50" as="geometry" />
        </mxCell>
        <mxCell id="hnkaHucLAWo4Te5h9rhA-15" value="" style="endArrow=none;html=1;rounded=0;entryX=0;entryY=0.5;entryDx=0;entryDy=0;exitX=1;exitY=0.3333333333333333;exitDx=0;exitDy=0;exitPerimeter=0;" edge="1" parent="1" source="hnkaHucLAWo4Te5h9rhA-2" target="hnkaHucLAWo4Te5h9rhA-14">
          <mxGeometry width="50" height="50" relative="1" as="geometry">
            <mxPoint x="160" y="850" as="sourcePoint" />
            <mxPoint x="310" y="992" as="targetPoint" />
          </mxGeometry>
        </mxCell>
        <mxCell id="hnkaHucLAWo4Te5h9rhA-25" value="Góp ý" style="ellipse;whiteSpace=wrap;html=1;" vertex="1" parent="1">
          <mxGeometry x="230" y="980" width="120" height="40" as="geometry" />
        </mxCell>
        <mxCell id="hnkaHucLAWo4Te5h9rhA-26" value="" style="endArrow=none;html=1;rounded=0;entryX=0;entryY=0.5;entryDx=0;entryDy=0;exitX=1;exitY=0.3333333333333333;exitDx=0;exitDy=0;exitPerimeter=0;" edge="1" parent="1" source="hnkaHucLAWo4Te5h9rhA-2" target="hnkaHucLAWo4Te5h9rhA-25">
          <mxGeometry width="50" height="50" relative="1" as="geometry">
            <mxPoint x="160" y="850" as="sourcePoint" />
            <mxPoint x="310" y="1082" as="targetPoint" />
          </mxGeometry>
        </mxCell>
        <mxCell id="hnkaHucLAWo4Te5h9rhA-29" value="Đổi mật khẩu" style="ellipse;whiteSpace=wrap;html=1;" vertex="1" parent="1">
          <mxGeometry x="490" y="560" width="120" height="50" as="geometry" />
        </mxCell>
        <mxCell id="hnkaHucLAWo4Te5h9rhA-34" value="Quản lý" style="shape=umlActor;verticalLabelPosition=bottom;verticalAlign=top;html=1;outlineConnect=0;" vertex="1" parent="1">
          <mxGeometry x="1090" y="770" width="30" height="50" as="geometry" />
        </mxCell>
        <mxCell id="hnkaHucLAWo4Te5h9rhA-35" value="Quản lý chi nhánh" style="ellipse;whiteSpace=wrap;html=1;" vertex="1" parent="1">
          <mxGeometry x="830" y="650" width="120" height="50" as="geometry" />
        </mxCell>
        <mxCell id="hnkaHucLAWo4Te5h9rhA-38" value="" style="endArrow=none;html=1;rounded=0;entryX=0;entryY=0.3333333333333333;entryDx=0;entryDy=0;exitX=1;exitY=0.5;exitDx=0;exitDy=0;entryPerimeter=0;" edge="1" parent="1" source="hnkaHucLAWo4Te5h9rhA-35" target="hnkaHucLAWo4Te5h9rhA-34">
          <mxGeometry width="50" height="50" relative="1" as="geometry">
            <mxPoint x="940" y="740" as="sourcePoint" />
            <mxPoint x="1090" y="792" as="targetPoint" />
          </mxGeometry>
        </mxCell>
        <mxCell id="hnkaHucLAWo4Te5h9rhA-41" value="Quản lý trạng thái phòng trọ" style="ellipse;whiteSpace=wrap;html=1;" vertex="1" parent="1">
          <mxGeometry x="830" y="735" width="120" height="50" as="geometry" />
        </mxCell>
        <mxCell id="hnkaHucLAWo4Te5h9rhA-42" value="" style="endArrow=none;html=1;rounded=0;entryX=0;entryY=0.3333333333333333;entryDx=0;entryDy=0;exitX=1;exitY=0.5;exitDx=0;exitDy=0;entryPerimeter=0;" edge="1" parent="1" source="hnkaHucLAWo4Te5h9rhA-41" target="hnkaHucLAWo4Te5h9rhA-34">
          <mxGeometry width="50" height="50" relative="1" as="geometry">
            <mxPoint x="970" y="730" as="sourcePoint" />
            <mxPoint x="1070" y="747" as="targetPoint" />
          </mxGeometry>
        </mxCell>
        <mxCell id="hnkaHucLAWo4Te5h9rhA-47" value="Quản lý người thuê" style="ellipse;whiteSpace=wrap;html=1;" vertex="1" parent="1">
          <mxGeometry x="830" y="820" width="120" height="50" as="geometry" />
        </mxCell>
        <mxCell id="hnkaHucLAWo4Te5h9rhA-48" value="" style="endArrow=none;html=1;rounded=0;entryX=0;entryY=0.3333333333333333;entryDx=0;entryDy=0;exitX=1;exitY=0;exitDx=0;exitDy=0;entryPerimeter=0;" edge="1" parent="1" source="hnkaHucLAWo4Te5h9rhA-47" target="hnkaHucLAWo4Te5h9rhA-34">
          <mxGeometry width="50" height="50" relative="1" as="geometry">
            <mxPoint x="980" y="832" as="sourcePoint" />
            <mxPoint x="1085" y="780" as="targetPoint" />
          </mxGeometry>
        </mxCell>
        <mxCell id="hnkaHucLAWo4Te5h9rhA-55" value="quản lý phòng trọ(điện nước từng phòng)" style="ellipse;whiteSpace=wrap;html=1;" vertex="1" parent="1">
          <mxGeometry x="830" y="910" width="120" height="60" as="geometry" />
        </mxCell>
        <mxCell id="hnkaHucLAWo4Te5h9rhA-56" value="" style="endArrow=none;html=1;rounded=0;entryX=0;entryY=0.3333333333333333;entryDx=0;entryDy=0;exitX=0.981;exitY=0.246;exitDx=0;exitDy=0;entryPerimeter=0;exitPerimeter=0;" edge="1" parent="1" source="hnkaHucLAWo4Te5h9rhA-55" target="hnkaHucLAWo4Te5h9rhA-34">
          <mxGeometry width="50" height="50" relative="1" as="geometry">
            <mxPoint x="1020" y="1143" as="sourcePoint" />
            <mxPoint x="1120" y="920" as="targetPoint" />
          </mxGeometry>
        </mxCell>
        <mxCell id="hnkaHucLAWo4Te5h9rhA-59" value="xem góp ý" style="ellipse;whiteSpace=wrap;html=1;" vertex="1" parent="1">
          <mxGeometry x="830" y="570" width="120" height="40" as="geometry" />
        </mxCell>
        <mxCell id="hnkaHucLAWo4Te5h9rhA-60" value="" style="endArrow=none;html=1;rounded=0;exitX=1;exitY=0.5;exitDx=0;exitDy=0;entryX=0;entryY=0.3333333333333333;entryDx=0;entryDy=0;entryPerimeter=0;" edge="1" parent="1" source="hnkaHucLAWo4Te5h9rhA-59" target="hnkaHucLAWo4Te5h9rhA-34">
          <mxGeometry width="50" height="50" relative="1" as="geometry">
            <mxPoint x="970" y="580" as="sourcePoint" />
            <mxPoint x="1090" y="790" as="targetPoint" />
          </mxGeometry>
        </mxCell>
        <mxCell id="hnkaHucLAWo4Te5h9rhA-63" value="Xem và xuất biên lai thu tiền" style="ellipse;whiteSpace=wrap;html=1;" vertex="1" parent="1">
          <mxGeometry x="830" y="1010" width="120" height="60" as="geometry" />
        </mxCell>
        <mxCell id="hnkaHucLAWo4Te5h9rhA-64" value="" style="endArrow=none;html=1;rounded=0;entryX=0;entryY=0.3333333333333333;entryDx=0;entryDy=0;exitX=0.981;exitY=0.277;exitDx=0;exitDy=0;entryPerimeter=0;exitPerimeter=0;" edge="1" parent="1" source="hnkaHucLAWo4Te5h9rhA-63" target="hnkaHucLAWo4Te5h9rhA-34">
          <mxGeometry width="50" height="50" relative="1" as="geometry">
            <mxPoint x="860" y="1323" as="sourcePoint" />
            <mxPoint x="952" y="1040" as="targetPoint" />
          </mxGeometry>
        </mxCell>
        <mxCell id="hnkaHucLAWo4Te5h9rhA-67" value="Quản lý hợp đồng&amp;nbsp;" style="ellipse;whiteSpace=wrap;html=1;" vertex="1" parent="1">
          <mxGeometry x="840" y="1110" width="120" height="70" as="geometry" />
        </mxCell>
        <mxCell id="hnkaHucLAWo4Te5h9rhA-70" value="Quên mật khẩu" style="ellipse;whiteSpace=wrap;html=1;" vertex="1" parent="1">
          <mxGeometry x="230" y="1050" width="120" height="50" as="geometry" />
        </mxCell>
        <mxCell id="hnkaHucLAWo4Te5h9rhA-76" value="" style="endArrow=block;dashed=1;endFill=1;endSize=12;html=1;rounded=0;entryX=0;entryY=0;entryDx=0;entryDy=0;exitX=1;exitY=0.5;exitDx=0;exitDy=0;" edge="1" parent="1" source="hnkaHucLAWo4Te5h9rhA-5" target="hnkaHucLAWo4Te5h9rhA-4">
          <mxGeometry width="160" relative="1" as="geometry">
            <mxPoint x="300" y="464" as="sourcePoint" />
            <mxPoint x="480" y="746" as="targetPoint" />
          </mxGeometry>
        </mxCell>
        <mxCell id="hnkaHucLAWo4Te5h9rhA-77" value="&amp;lt;&amp;lt;include&amp;gt;&amp;gt;" style="edgeLabel;html=1;align=center;verticalAlign=middle;resizable=0;points=[];" vertex="1" connectable="0" parent="hnkaHucLAWo4Te5h9rhA-76">
          <mxGeometry x="-0.2162" y="1" relative="1" as="geometry">
            <mxPoint as="offset" />
          </mxGeometry>
        </mxCell>
        <mxCell id="hnkaHucLAWo4Te5h9rhA-80" value="" style="endArrow=none;html=1;rounded=0;entryX=0;entryY=0.5;entryDx=0;entryDy=0;exitX=1;exitY=0.3333333333333333;exitDx=0;exitDy=0;exitPerimeter=0;" edge="1" parent="1" source="hnkaHucLAWo4Te5h9rhA-2" target="hnkaHucLAWo4Te5h9rhA-70">
          <mxGeometry width="50" height="50" relative="1" as="geometry">
            <mxPoint x="70" y="800" as="sourcePoint" />
            <mxPoint x="310" y="1172" as="targetPoint" />
          </mxGeometry>
        </mxCell>
        <mxCell id="hnkaHucLAWo4Te5h9rhA-81" value="" style="endArrow=block;dashed=1;endFill=1;endSize=12;html=1;rounded=0;entryX=0;entryY=0.5;entryDx=0;entryDy=0;exitX=1;exitY=0.5;exitDx=0;exitDy=0;" edge="1" parent="1" source="hnkaHucLAWo4Te5h9rhA-8" target="hnkaHucLAWo4Te5h9rhA-4">
          <mxGeometry width="160" relative="1" as="geometry">
            <mxPoint x="400" y="710" as="sourcePoint" />
            <mxPoint x="521" y="797" as="targetPoint" />
          </mxGeometry>
        </mxCell>
        <mxCell id="hnkaHucLAWo4Te5h9rhA-82" value="&amp;lt;&amp;lt;include&amp;gt;&amp;gt;" style="edgeLabel;html=1;align=center;verticalAlign=middle;resizable=0;points=[];" vertex="1" connectable="0" parent="hnkaHucLAWo4Te5h9rhA-81">
          <mxGeometry x="-0.2162" y="1" relative="1" as="geometry">
            <mxPoint as="offset" />
          </mxGeometry>
        </mxCell>
        <mxCell id="hnkaHucLAWo4Te5h9rhA-83" value="" style="endArrow=block;dashed=1;endFill=1;endSize=12;html=1;rounded=0;entryX=0.038;entryY=0.762;entryDx=0;entryDy=0;exitX=0.975;exitY=0.287;exitDx=0;exitDy=0;exitPerimeter=0;entryPerimeter=0;" edge="1" parent="1" source="hnkaHucLAWo4Te5h9rhA-11" target="hnkaHucLAWo4Te5h9rhA-4">
          <mxGeometry width="160" relative="1" as="geometry">
            <mxPoint x="410" y="810" as="sourcePoint" />
            <mxPoint x="531" y="897" as="targetPoint" />
          </mxGeometry>
        </mxCell>
        <mxCell id="hnkaHucLAWo4Te5h9rhA-84" value="&amp;lt;&amp;lt;include&amp;gt;&amp;gt;" style="edgeLabel;html=1;align=center;verticalAlign=middle;resizable=0;points=[];" vertex="1" connectable="0" parent="hnkaHucLAWo4Te5h9rhA-83">
          <mxGeometry x="-0.2162" y="1" relative="1" as="geometry">
            <mxPoint as="offset" />
          </mxGeometry>
        </mxCell>
        <mxCell id="hnkaHucLAWo4Te5h9rhA-85" value="" style="endArrow=block;dashed=1;endFill=1;endSize=12;html=1;rounded=0;entryX=0;entryY=1;entryDx=0;entryDy=0;exitX=1;exitY=0.5;exitDx=0;exitDy=0;" edge="1" parent="1" source="hnkaHucLAWo4Te5h9rhA-14" target="hnkaHucLAWo4Te5h9rhA-4">
          <mxGeometry width="160" relative="1" as="geometry">
            <mxPoint x="500" y="980" as="sourcePoint" />
            <mxPoint x="621" y="1067" as="targetPoint" />
          </mxGeometry>
        </mxCell>
        <mxCell id="hnkaHucLAWo4Te5h9rhA-86" value="&amp;lt;&amp;lt;include&amp;gt;&amp;gt;" style="edgeLabel;html=1;align=center;verticalAlign=middle;resizable=0;points=[];" vertex="1" connectable="0" parent="hnkaHucLAWo4Te5h9rhA-85">
          <mxGeometry x="-0.2162" y="1" relative="1" as="geometry">
            <mxPoint as="offset" />
          </mxGeometry>
        </mxCell>
        <mxCell id="hnkaHucLAWo4Te5h9rhA-87" value="" style="endArrow=block;dashed=1;endFill=1;endSize=12;html=1;rounded=0;entryX=0.322;entryY=0.934;entryDx=0;entryDy=0;exitX=0.923;exitY=0.369;exitDx=0;exitDy=0;exitPerimeter=0;entryPerimeter=0;" edge="1" parent="1" source="hnkaHucLAWo4Te5h9rhA-25" target="hnkaHucLAWo4Te5h9rhA-4">
          <mxGeometry width="160" relative="1" as="geometry">
            <mxPoint x="480" y="940" as="sourcePoint" />
            <mxPoint x="601" y="1027" as="targetPoint" />
          </mxGeometry>
        </mxCell>
        <mxCell id="hnkaHucLAWo4Te5h9rhA-88" value="&amp;lt;&amp;lt;include&amp;gt;&amp;gt;" style="edgeLabel;html=1;align=center;verticalAlign=middle;resizable=0;points=[];" vertex="1" connectable="0" parent="hnkaHucLAWo4Te5h9rhA-87">
          <mxGeometry x="-0.2162" y="1" relative="1" as="geometry">
            <mxPoint as="offset" />
          </mxGeometry>
        </mxCell>
        <mxCell id="hnkaHucLAWo4Te5h9rhA-89" value="" style="endArrow=block;dashed=1;endFill=1;endSize=12;html=1;rounded=0;entryX=0.5;entryY=0;entryDx=0;entryDy=0;exitX=0.5;exitY=1;exitDx=0;exitDy=0;" edge="1" parent="1" source="hnkaHucLAWo4Te5h9rhA-29" target="hnkaHucLAWo4Te5h9rhA-4">
          <mxGeometry width="160" relative="1" as="geometry">
            <mxPoint x="580" y="660" as="sourcePoint" />
            <mxPoint x="701" y="747" as="targetPoint" />
          </mxGeometry>
        </mxCell>
        <mxCell id="hnkaHucLAWo4Te5h9rhA-90" value="&amp;lt;&amp;lt;include&amp;gt;&amp;gt;" style="edgeLabel;html=1;align=center;verticalAlign=middle;resizable=0;points=[];" vertex="1" connectable="0" parent="hnkaHucLAWo4Te5h9rhA-89">
          <mxGeometry x="-0.2162" y="1" relative="1" as="geometry">
            <mxPoint as="offset" />
          </mxGeometry>
        </mxCell>
        <mxCell id="hnkaHucLAWo4Te5h9rhA-93" value="" style="endArrow=block;dashed=1;endFill=1;endSize=12;html=1;rounded=0;entryX=0.805;entryY=0.122;entryDx=0;entryDy=0;exitX=0;exitY=0.5;exitDx=0;exitDy=0;entryPerimeter=0;" edge="1" parent="1" source="hnkaHucLAWo4Te5h9rhA-59" target="hnkaHucLAWo4Te5h9rhA-4">
          <mxGeometry width="160" relative="1" as="geometry">
            <mxPoint x="650" y="670" as="sourcePoint" />
            <mxPoint x="771" y="757" as="targetPoint" />
          </mxGeometry>
        </mxCell>
        <mxCell id="hnkaHucLAWo4Te5h9rhA-94" value="&amp;lt;&amp;lt;include&amp;gt;&amp;gt;" style="edgeLabel;html=1;align=center;verticalAlign=middle;resizable=0;points=[];" vertex="1" connectable="0" parent="hnkaHucLAWo4Te5h9rhA-93">
          <mxGeometry x="-0.2162" y="1" relative="1" as="geometry">
            <mxPoint as="offset" />
          </mxGeometry>
        </mxCell>
        <mxCell id="hnkaHucLAWo4Te5h9rhA-95" value="" style="endArrow=block;dashed=1;endFill=1;endSize=12;html=1;rounded=0;exitX=0;exitY=0.5;exitDx=0;exitDy=0;" edge="1" parent="1" source="hnkaHucLAWo4Te5h9rhA-35" target="hnkaHucLAWo4Te5h9rhA-4">
          <mxGeometry width="160" relative="1" as="geometry">
            <mxPoint x="670" y="720" as="sourcePoint" />
            <mxPoint x="791" y="807" as="targetPoint" />
          </mxGeometry>
        </mxCell>
        <mxCell id="hnkaHucLAWo4Te5h9rhA-96" value="&amp;lt;&amp;lt;include&amp;gt;&amp;gt;" style="edgeLabel;html=1;align=center;verticalAlign=middle;resizable=0;points=[];" vertex="1" connectable="0" parent="hnkaHucLAWo4Te5h9rhA-95">
          <mxGeometry x="-0.2162" y="1" relative="1" as="geometry">
            <mxPoint as="offset" />
          </mxGeometry>
        </mxCell>
        <mxCell id="hnkaHucLAWo4Te5h9rhA-97" value="" style="endArrow=block;dashed=1;endFill=1;endSize=12;html=1;rounded=0;exitX=0;exitY=0.5;exitDx=0;exitDy=0;entryX=1;entryY=0.5;entryDx=0;entryDy=0;" edge="1" parent="1" source="hnkaHucLAWo4Te5h9rhA-41" target="hnkaHucLAWo4Te5h9rhA-4">
          <mxGeometry width="160" relative="1" as="geometry">
            <mxPoint x="979" y="770" as="sourcePoint" />
            <mxPoint x="750" y="836" as="targetPoint" />
          </mxGeometry>
        </mxCell>
        <mxCell id="hnkaHucLAWo4Te5h9rhA-98" value="&amp;lt;&amp;lt;include&amp;gt;&amp;gt;" style="edgeLabel;html=1;align=center;verticalAlign=middle;resizable=0;points=[];" vertex="1" connectable="0" parent="hnkaHucLAWo4Te5h9rhA-97">
          <mxGeometry x="-0.2162" y="1" relative="1" as="geometry">
            <mxPoint as="offset" />
          </mxGeometry>
        </mxCell>
        <mxCell id="hnkaHucLAWo4Te5h9rhA-99" value="" style="endArrow=block;dashed=1;endFill=1;endSize=12;html=1;rounded=0;exitX=0;exitY=0.5;exitDx=0;exitDy=0;" edge="1" parent="1" source="hnkaHucLAWo4Te5h9rhA-47" target="hnkaHucLAWo4Te5h9rhA-4">
          <mxGeometry width="160" relative="1" as="geometry">
            <mxPoint x="989" y="830" as="sourcePoint" />
            <mxPoint x="760" y="896" as="targetPoint" />
          </mxGeometry>
        </mxCell>
        <mxCell id="hnkaHucLAWo4Te5h9rhA-100" value="&amp;lt;&amp;lt;include&amp;gt;&amp;gt;" style="edgeLabel;html=1;align=center;verticalAlign=middle;resizable=0;points=[];" vertex="1" connectable="0" parent="hnkaHucLAWo4Te5h9rhA-99">
          <mxGeometry x="-0.2162" y="1" relative="1" as="geometry">
            <mxPoint as="offset" />
          </mxGeometry>
        </mxCell>
        <mxCell id="hnkaHucLAWo4Te5h9rhA-103" value="" style="endArrow=block;dashed=1;endFill=1;endSize=12;html=1;rounded=0;exitX=0.022;exitY=0.336;exitDx=0;exitDy=0;entryX=0.5;entryY=1;entryDx=0;entryDy=0;exitPerimeter=0;" edge="1" parent="1" source="hnkaHucLAWo4Te5h9rhA-67" target="hnkaHucLAWo4Te5h9rhA-4">
          <mxGeometry width="160" relative="1" as="geometry">
            <mxPoint x="769" y="810" as="sourcePoint" />
            <mxPoint x="540" y="876" as="targetPoint" />
          </mxGeometry>
        </mxCell>
        <mxCell id="hnkaHucLAWo4Te5h9rhA-104" value="&amp;lt;&amp;lt;include&amp;gt;&amp;gt;" style="edgeLabel;html=1;align=center;verticalAlign=middle;resizable=0;points=[];" vertex="1" connectable="0" parent="hnkaHucLAWo4Te5h9rhA-103">
          <mxGeometry x="-0.2162" y="1" relative="1" as="geometry">
            <mxPoint as="offset" />
          </mxGeometry>
        </mxCell>
        <mxCell id="hnkaHucLAWo4Te5h9rhA-105" value="" style="endArrow=block;dashed=1;endFill=1;endSize=12;html=1;rounded=0;exitX=0;exitY=0.5;exitDx=0;exitDy=0;entryX=0.647;entryY=0.966;entryDx=0;entryDy=0;entryPerimeter=0;" edge="1" parent="1" source="hnkaHucLAWo4Te5h9rhA-63" target="hnkaHucLAWo4Te5h9rhA-4">
          <mxGeometry width="160" relative="1" as="geometry">
            <mxPoint x="929" y="990" as="sourcePoint" />
            <mxPoint x="700" y="1056" as="targetPoint" />
          </mxGeometry>
        </mxCell>
        <mxCell id="hnkaHucLAWo4Te5h9rhA-106" value="&amp;lt;&amp;lt;include&amp;gt;&amp;gt;" style="edgeLabel;html=1;align=center;verticalAlign=middle;resizable=0;points=[];" vertex="1" connectable="0" parent="hnkaHucLAWo4Te5h9rhA-105">
          <mxGeometry x="-0.2162" y="1" relative="1" as="geometry">
            <mxPoint as="offset" />
          </mxGeometry>
        </mxCell>
        <mxCell id="hnkaHucLAWo4Te5h9rhA-107" value="" style="endArrow=block;dashed=1;endFill=1;endSize=12;html=1;rounded=0;exitX=0;exitY=0.5;exitDx=0;exitDy=0;entryX=0.772;entryY=0.872;entryDx=0;entryDy=0;entryPerimeter=0;" edge="1" parent="1" source="hnkaHucLAWo4Te5h9rhA-55" target="hnkaHucLAWo4Te5h9rhA-4">
          <mxGeometry width="160" relative="1" as="geometry">
            <mxPoint x="964.5" y="884" as="sourcePoint" />
            <mxPoint x="735.5" y="950" as="targetPoint" />
          </mxGeometry>
        </mxCell>
        <mxCell id="hnkaHucLAWo4Te5h9rhA-108" value="&amp;lt;&amp;lt;include&amp;gt;&amp;gt;" style="edgeLabel;html=1;align=center;verticalAlign=middle;resizable=0;points=[];" vertex="1" connectable="0" parent="hnkaHucLAWo4Te5h9rhA-107">
          <mxGeometry x="-0.2162" y="1" relative="1" as="geometry">
            <mxPoint as="offset" />
          </mxGeometry>
        </mxCell>
        <mxCell id="hnkaHucLAWo4Te5h9rhA-109" value="Xem hợp đồng" style="ellipse;whiteSpace=wrap;html=1;" vertex="1" parent="1">
          <mxGeometry x="240" y="1120" width="120" height="70" as="geometry" />
        </mxCell>
        <mxCell id="hnkaHucLAWo4Te5h9rhA-110" value="" style="endArrow=none;html=1;rounded=0;entryX=-0.003;entryY=0.371;entryDx=0;entryDy=0;entryPerimeter=0;exitX=0.75;exitY=0.1;exitDx=0;exitDy=0;exitPerimeter=0;" edge="1" parent="1" source="hnkaHucLAWo4Te5h9rhA-2" target="hnkaHucLAWo4Te5h9rhA-109">
          <mxGeometry width="50" height="50" relative="1" as="geometry">
            <mxPoint x="70" y="800" as="sourcePoint" />
            <mxPoint x="320" y="1392" as="targetPoint" />
          </mxGeometry>
        </mxCell>
        <mxCell id="hnkaHucLAWo4Te5h9rhA-111" value="" style="endArrow=block;dashed=1;endFill=1;endSize=12;html=1;rounded=0;entryX=0.431;entryY=1.044;entryDx=0;entryDy=0;exitX=0.934;exitY=0.193;exitDx=0;exitDy=0;exitPerimeter=0;entryPerimeter=0;" edge="1" parent="1" source="hnkaHucLAWo4Te5h9rhA-109" target="hnkaHucLAWo4Te5h9rhA-4">
          <mxGeometry width="160" relative="1" as="geometry">
            <mxPoint x="470" y="1270" as="sourcePoint" />
            <mxPoint x="637" y="1060" as="targetPoint" />
          </mxGeometry>
        </mxCell>
        <mxCell id="hnkaHucLAWo4Te5h9rhA-112" value="&amp;lt;&amp;lt;include&amp;gt;&amp;gt;" style="edgeLabel;html=1;align=center;verticalAlign=middle;resizable=0;points=[];" vertex="1" connectable="0" parent="hnkaHucLAWo4Te5h9rhA-111">
          <mxGeometry x="-0.2162" y="1" relative="1" as="geometry">
            <mxPoint as="offset" />
          </mxGeometry>
        </mxCell>
        <mxCell id="hnkaHucLAWo4Te5h9rhA-113" value="" style="endArrow=none;html=1;rounded=0;exitX=1;exitY=0.286;exitDx=0;exitDy=0;exitPerimeter=0;" edge="1" parent="1" source="hnkaHucLAWo4Te5h9rhA-67">
          <mxGeometry width="50" height="50" relative="1" as="geometry">
            <mxPoint x="948" y="1130" as="sourcePoint" />
            <mxPoint x="1090" y="790" as="targetPoint" />
          </mxGeometry>
        </mxCell>
        <mxCell id="hnkaHucLAWo4Te5h9rhA-114" value="Xem chi tiết hoá đơn" style="ellipse;whiteSpace=wrap;html=1;" vertex="1" parent="1">
          <mxGeometry x="230" y="1210" width="120" height="70" as="geometry" />
        </mxCell>
        <mxCell id="hnkaHucLAWo4Te5h9rhA-115" value="" style="endArrow=none;html=1;rounded=0;exitX=1;exitY=0.3333333333333333;exitDx=0;exitDy=0;exitPerimeter=0;entryX=0;entryY=0.5;entryDx=0;entryDy=0;" edge="1" parent="1" source="hnkaHucLAWo4Te5h9rhA-2" target="hnkaHucLAWo4Te5h9rhA-29">
          <mxGeometry width="50" height="50" relative="1" as="geometry">
            <mxPoint x="110" y="663" as="sourcePoint" />
            <mxPoint x="280" y="520" as="targetPoint" />
            <Array as="points">
              <mxPoint x="230" y="570" />
            </Array>
          </mxGeometry>
        </mxCell>
        <mxCell id="hnkaHucLAWo4Te5h9rhA-116" value="" style="endArrow=none;html=1;rounded=0;exitX=1;exitY=0.5;exitDx=0;exitDy=0;entryX=0;entryY=0.3333333333333333;entryDx=0;entryDy=0;entryPerimeter=0;" edge="1" parent="1" source="hnkaHucLAWo4Te5h9rhA-29" target="hnkaHucLAWo4Te5h9rhA-34">
          <mxGeometry width="50" height="50" relative="1" as="geometry">
            <mxPoint x="650" y="838" as="sourcePoint" />
            <mxPoint x="1020" y="580" as="targetPoint" />
            <Array as="points">
              <mxPoint x="990" y="530" />
            </Array>
          </mxGeometry>
        </mxCell>
        <mxCell id="hnkaHucLAWo4Te5h9rhA-117" value="" style="endArrow=none;html=1;rounded=0;entryX=0;entryY=0.5;entryDx=0;entryDy=0;exitX=1;exitY=0.3333333333333333;exitDx=0;exitDy=0;exitPerimeter=0;" edge="1" parent="1" source="hnkaHucLAWo4Te5h9rhA-2" target="hnkaHucLAWo4Te5h9rhA-114">
          <mxGeometry width="50" height="50" relative="1" as="geometry">
            <mxPoint x="70" y="790" as="sourcePoint" />
            <mxPoint x="230" y="1270" as="targetPoint" />
          </mxGeometry>
        </mxCell>
      </root>
    </mxGraphModel>
  </diagram>
</mxfile>
